<svg width="728" height="792" viewBox="0 0 728 792" fill="none" xmlns="http://www.w3.org/2000/svg">
<g clip-path="url(#clip0_1_69)">
<path d="M148.12 444.46C148.104 444.41 148.1 444.357 148.109 444.305C148.118 444.254 148.138 444.205 148.17 444.163C148.201 444.121 148.242 444.087 148.289 444.064C148.336 444.041 148.388 444.029 148.44 444.03H255.92C256.177 444.029 256.425 444.125 256.615 444.299C256.806 444.473 256.925 444.712 256.95 444.97C260.3 478.35 288.56 506.51 321.86 509.86C338.893 511.573 354.283 507.71 368.03 498.27C386.943 485.283 398.35 467.433 402.25 444.72C402.283 444.524 402.384 444.346 402.534 444.218C402.684 444.09 402.874 444.02 403.07 444.02C500.137 444.06 552.863 444.083 561.25 444.09C571.41 444.1 580.87 442.7 587.85 435.36C594.93 427.92 594.72 415.77 594.74 406C594.773 394.22 594.787 376.053 594.78 351.5C594.78 342.433 593.903 333.613 592.15 325.04C587.11 300.32 580.407 273.797 572.04 245.47C569.453 236.73 566.47 227.873 563.09 218.9C560.957 213.233 558.73 208.21 556.41 203.83C540.55 173.8 509.21 167.14 477.87 167.09C365.99 166.923 257.847 167.04 153.44 167.44C153.383 167.44 153.327 167.424 153.278 167.395C153.229 167.366 153.188 167.324 153.161 167.274C153.133 167.224 153.12 167.168 153.121 167.111C153.123 167.054 153.14 166.998 153.17 166.95C164.59 148.19 178.27 129.59 193.58 114C213.813 93.3733 235.863 76.4466 259.73 63.2199C316.79 31.5899 383.7 20.3599 447.92 31.2999C534.53 46.0599 611.31 100.72 651.93 178.83C683.11 238.8 691.89 307.9 676.88 373.9C665.68 423.14 643.083 466.207 609.09 503.1C605.61 506.887 600.867 511.693 594.86 517.52C559.15 552.17 513.75 576.37 466.4 587.86C446.533 592.673 425.497 595.21 403.29 595.47C344.183 596.157 290.053 579.927 240.9 546.78C202.02 520.567 171.197 486.673 148.43 445.1C148.27 444.807 148.167 444.593 148.12 444.46Z" fill="white"/>
<path d="M109.85 197.81C112.79 203.04 117.63 203.2 123.52 203.19C241.47 203.11 367.61 203.88 477 202.8C482.14 202.753 486.13 203.003 488.97 203.55C499.42 205.58 507.7 212.99 509 224.02C509.607 229.2 509.91 234.943 509.91 241.25C509.903 284.303 509.917 312.887 509.95 327C509.957 329.32 509.91 331.35 509.81 333.09C509.8 333.272 509.721 333.444 509.589 333.57C509.457 333.696 509.282 333.768 509.1 333.77C499.393 333.917 490.127 333.917 481.3 333.77C480.433 333.757 479.257 332.997 477.77 331.49C457.343 310.77 435.407 288.757 411.96 265.45C405.85 259.38 400.42 255.32 392.13 254.37C391.337 254.277 387.777 254.233 381.45 254.24C238.89 254.28 155.49 254.35 131.25 254.45C129.403 254.457 126.977 254.61 123.97 254.91C111.74 256.12 110.7 275.01 121.72 278.66C123 279.087 126.01 279.28 130.75 279.24C138.07 279.173 173.233 279.157 236.24 279.19C253.45 279.2 253.17 303.06 235.75 302.99C210.223 302.877 161.19 302.893 88.65 303.04L89.02 289.94C89.0266 289.676 89.0879 289.417 89.2 289.18C89.4867 288.567 89.62 287.937 89.6 287.29C89.4867 283.703 89.7434 280.493 90.37 277.66C90.4964 277.095 90.5634 276.515 90.57 275.93C90.5967 273.243 90.8467 271.227 91.32 269.88C91.4986 269.371 91.5866 268.833 91.58 268.29C91.5334 265.763 91.8167 263.493 92.43 261.48C92.5295 261.149 92.58 260.808 92.58 260.47C92.5534 258.537 92.8267 256.937 93.4 255.67C93.5313 255.374 93.5896 255.052 93.57 254.73C93.49 253.243 93.7434 251.937 94.33 250.81C94.5005 250.489 94.5866 250.131 94.58 249.77C94.5467 248.15 94.68 246.89 94.98 245.99C95.4467 244.603 95.6734 243.56 95.66 242.86C95.64 241.96 95.86 241.263 96.32 240.77C96.76 240.3 96.5 238.82 96.75 237.82C99.7967 225.28 103.53 212.873 107.95 200.6C108.043 200.34 108.21 200.047 108.45 199.72C108.663 199.433 108.72 199.097 108.62 198.71C108.584 198.573 108.584 198.429 108.621 198.292C108.658 198.155 108.73 198.03 108.83 197.93C109.183 197.563 109.523 197.523 109.85 197.81Z" fill="white"/>
<path d="M534.72 229.34H543.68C543.936 229.34 544.185 229.422 544.389 229.573C544.593 229.725 544.74 229.938 544.81 230.18C554.637 263.6 563.28 297.88 570.74 333.02C570.761 333.119 570.759 333.22 570.736 333.318C570.712 333.416 570.668 333.508 570.604 333.586C570.541 333.665 570.461 333.728 570.371 333.772C570.28 333.816 570.181 333.839 570.08 333.84H534.7C534.615 333.84 534.53 333.823 534.451 333.79C534.372 333.758 534.301 333.71 534.24 333.65C534.18 333.589 534.132 333.518 534.1 333.439C534.067 333.36 534.05 333.275 534.05 333.19V230.01C534.05 229.922 534.067 229.835 534.101 229.754C534.135 229.672 534.184 229.598 534.246 229.536C534.308 229.474 534.382 229.425 534.464 229.391C534.545 229.357 534.632 229.34 534.72 229.34Z" fill="white"/>
<path d="M91.1199 356.48C90.9199 354.293 90.7633 352.107 90.6499 349.92C90.5499 347.993 90.3499 346.237 90.0499 344.65C89.7166 342.897 89.5799 341.123 89.6399 339.33C89.6599 338.763 89.4799 336.89 89.0999 333.71C88.8866 331.917 88.8866 330.027 89.0999 328.04C126.607 328.073 164.157 328.093 201.75 328.1C209.24 328.11 215.99 332.67 217.07 340.22C218.71 351.84 210.77 356.9 200.25 356.79C189.51 356.683 153.307 356.667 91.6399 356.74C91.5556 356.74 91.4753 356.716 91.4099 356.67L91.1199 356.48Z" fill="white"/>
<path d="M323.456 380.993C330.906 380.276 338.424 381.036 345.582 383.23C352.739 385.424 359.396 389.009 365.172 393.781C370.948 398.552 375.73 404.417 379.245 411.039C382.76 417.662 384.939 424.913 385.658 432.378C387.109 447.455 382.525 462.489 372.913 474.175C363.301 485.86 349.449 493.238 334.404 494.687C326.954 495.404 319.436 494.644 312.278 492.45C305.121 490.256 298.464 486.671 292.688 481.899C286.912 477.128 282.13 471.263 278.615 464.641C275.1 458.018 272.921 450.767 272.202 443.302C270.751 428.225 275.335 413.191 284.947 401.505C294.559 389.82 308.411 382.442 323.456 380.993ZM356.55 437.77C356.55 434.139 355.835 430.543 354.445 427.189C353.056 423.834 351.019 420.786 348.451 418.219C345.884 415.651 342.836 413.614 339.481 412.225C336.127 410.835 332.531 410.12 328.9 410.12C321.567 410.12 314.534 413.033 309.348 418.219C304.163 423.404 301.25 430.437 301.25 437.77C301.25 445.103 304.163 452.136 309.348 457.321C314.534 462.507 321.567 465.42 328.9 465.42C336.233 465.42 343.266 462.507 348.451 457.321C353.637 452.136 356.55 445.103 356.55 437.77Z" fill="white"/>
<path d="M328.9 465.42C344.171 465.42 356.55 453.041 356.55 437.77C356.55 422.499 344.171 410.12 328.9 410.12C313.629 410.12 301.25 422.499 301.25 437.77C301.25 453.041 313.629 465.42 328.9 465.42Z" fill="#0A0E12"/>
<path d="M91.12 356.48L91.41 356.67C91.4754 356.716 91.5556 356.74 91.64 356.74C153.307 356.667 189.51 356.683 200.25 356.79C210.77 356.9 218.71 351.84 217.07 340.22C215.99 332.67 209.24 328.11 201.75 328.1C164.157 328.093 126.607 328.073 89.1 328.04C80.8266 327.527 72.5433 327.36 64.25 327.54C59.5166 327.64 56.06 325.677 53.88 321.65C53.7275 321.372 53.6162 321.068 53.55 320.75C53.22 319.13 52.58 318.23 52.43 316.63C52.0766 312.957 52.96 309.783 55.08 307.11C57.29 304.32 60.9 303.46 64.67 303.5C72.7833 303.567 80.7766 303.413 88.65 303.04C161.19 302.893 210.223 302.877 235.75 302.99C253.17 303.06 253.45 279.2 236.24 279.19C173.233 279.157 138.07 279.173 130.75 279.24C126.01 279.28 123 279.087 121.72 278.66C110.7 275.01 111.74 256.12 123.97 254.91C126.977 254.61 129.403 254.457 131.25 254.45C155.49 254.35 238.89 254.28 381.45 254.24C387.777 254.233 391.337 254.277 392.13 254.37C400.42 255.32 405.85 259.38 411.96 265.45C435.407 288.757 457.343 310.77 477.77 331.49C479.257 332.997 480.433 333.757 481.3 333.77C490.127 333.917 499.393 333.917 509.1 333.77C509.282 333.768 509.457 333.696 509.589 333.57C509.721 333.444 509.8 333.272 509.81 333.09C509.91 331.35 509.957 329.32 509.95 327C509.917 312.887 509.903 284.303 509.91 241.25C509.91 234.943 509.607 229.2 509 224.02C507.7 212.99 499.42 205.58 488.97 203.55C486.13 203.003 482.14 202.753 477 202.8C367.61 203.88 241.47 203.11 123.52 203.19C117.63 203.2 112.79 203.04 109.85 197.81L109.75 196.7C109.73 196.542 109.751 196.381 109.81 196.23C128.063 149.037 156.127 108.963 194 76.01C219.213 54.0767 246.767 36.8934 276.66 24.4601C276.84 24.3801 276.997 24.3467 277.13 24.36C277.271 24.3751 277.414 24.3503 277.543 24.2886C277.672 24.2268 277.781 24.1304 277.86 24.01C278.22 23.4434 278.86 23.25 279.78 23.43C279.954 23.4645 280.136 23.4354 280.293 23.3477C280.45 23.26 280.573 23.1193 280.64 22.95C280.833 22.4567 281.223 22.2834 281.81 22.43C282.15 22.5234 282.567 22.3434 283.06 21.89C283.487 21.5034 284.043 21.3367 284.73 21.39C284.921 21.4024 285.113 21.3731 285.293 21.3041C285.472 21.235 285.635 21.1279 285.77 20.9901C285.803 20.9567 285.83 20.9267 285.85 20.9C286.008 20.7293 286.2 20.6022 286.41 20.53C294.157 17.8634 298.107 16.4967 298.26 16.43C298.34 16.3967 298.57 16.3734 298.95 16.36C299.25 16.3534 299.457 16.2934 299.57 16.18C300.76 15.04 302.35 15.81 303.22 14.79C303.48 14.4967 303.87 14.3734 304.39 14.42C304.837 14.46 305.233 14.3967 305.58 14.23C306.367 13.8634 308.04 13.3201 310.6 12.6001C311.48 12.3501 312.36 12.6 312.99 12C313.134 11.8621 313.313 11.7624 313.51 11.7101C316.75 10.8567 318.613 10.41 319.1 10.37C320.43 10.25 321.32 9.19005 322.97 9.40005C323.288 9.44558 323.614 9.38596 323.9 9.23005C324.913 8.67672 325.98 8.39671 327.1 8.39005C327.435 8.39001 327.767 8.31127 328.07 8.16005C329.31 7.54005 330.567 7.29338 331.84 7.42005C332.204 7.45901 332.572 7.37833 332.89 7.19005C334.017 6.52338 335.333 6.27338 336.84 6.44005C337.171 6.479 337.507 6.41254 337.8 6.25005C338.84 5.67672 340.187 5.40672 341.84 5.44005C342.15 5.44667 342.456 5.39227 342.74 5.28005C344.447 4.60671 346.173 4.32338 347.92 4.43005C348.223 4.44327 348.527 4.38863 348.81 4.27005C350.363 3.61005 352.013 3.33338 353.76 3.44005C354.005 3.45329 354.252 3.42282 354.49 3.35005C355.71 2.97671 357.583 2.66339 360.11 2.41005C363.537 2.07005 365.307 1.89338 365.42 1.88005C375.393 0.826712 380.85 0.330048 381.79 0.390048C383.697 0.503381 385.147 0.480048 386.14 0.320048C387.627 0.0933815 389.053 -0.0266191 390.42 -0.0399524C398.713 -0.0866191 405.99 -0.0666215 412.25 0.0200451C412.61 0.0267118 412.957 0.116716 413.29 0.290049C413.454 0.375552 413.64 0.420149 413.83 0.420047C419.123 0.35338 423.19 0.573384 426.03 1.08005C428.15 1.46005 430.73 1.38005 432.65 1.61005C438.517 2.34338 443.713 3.06005 448.24 3.76005C449.127 3.90005 449.707 4.05005 449.98 4.21005C450.279 4.39166 450.633 4.47228 450.99 4.44005C452.503 4.29338 453.893 4.56672 455.16 5.26005C455.446 5.41598 455.775 5.47889 456.1 5.44005C457.427 5.28672 459.007 5.52672 460.84 6.16005C461.079 6.23986 461.331 6.2968 461.59 6.33005C464.797 6.76338 467.76 7.42005 470.48 8.30005C470.785 8.39941 471.098 8.45003 471.41 8.45005C473.08 8.45005 474.13 9.58005 475.54 9.44005C476.94 9.29005 477.73 10.2201 479.25 10.4401C481.037 10.7001 483.27 11.35 485.95 12.39C486.166 12.4684 486.398 12.4857 486.62 12.4401L486.94 12.37C487.216 12.3121 487.506 12.3621 487.75 12.51C488.87 13.1967 490.04 13.5467 491.26 13.56C492.147 13.5667 493.137 13.8767 494.23 14.4901C494.983 14.9167 495.38 15.1434 495.42 15.17C495.54 15.262 495.677 15.3288 495.823 15.3666C495.969 15.4044 496.121 15.4124 496.27 15.39C497.017 15.2834 497.633 15.46 498.12 15.92C498.317 16.1043 498.557 16.2412 498.82 16.3201C498.88 16.3401 499.177 16.4367 499.71 16.61C529.557 26.1767 557.877 40.7501 584.67 60.3301C589.71 64.0167 594.503 67.7267 599.05 71.4601C644.08 108.45 678.55 158.88 696.2 214.79C696.49 215.72 696.44 216.67 696.78 217.35C696.886 217.566 696.981 217.766 697.054 217.927C697.126 218.087 697.173 218.203 697.19 218.26C699.157 224.747 700.283 228.783 700.57 230.37C700.577 230.41 700.577 230.563 700.57 230.83C700.557 231.241 700.665 231.648 700.88 232C701.427 232.893 701.663 233.77 701.59 234.63C701.577 234.736 701.583 234.844 701.61 234.95L704.82 249.93C704.833 249.983 704.85 250.033 704.87 250.08C705.377 251.193 705.61 252.433 705.57 253.8C705.557 254.098 705.594 254.392 705.68 254.67C706.373 256.997 706.667 259.063 706.56 260.87C706.54 261.185 706.595 261.504 706.72 261.8C707.44 263.513 707.72 265.117 707.56 266.61C707.528 266.916 707.59 267.224 707.74 267.49C707.96 267.897 708.327 270.663 708.84 275.79C710.147 288.837 710.737 297.263 710.61 301.07C710.603 301.379 710.672 301.688 710.81 301.97C710.93 302.217 710.99 302.393 710.99 302.5C711.003 307.567 711.007 313.167 711 319.3C710.994 319.602 710.915 319.901 710.77 320.17L710.65 320.4C710.604 320.492 710.58 320.595 710.58 320.7C710.707 326 710.453 331.71 709.82 337.83C709.5 340.93 709.41 342.683 709.55 343.09C709.623 343.303 709.443 344.447 709.01 346.52C708.83 347.387 708.69 348.54 708.59 349.98C708.437 352.207 708.12 354.48 707.64 356.8C707.6 357.013 707.58 357.231 707.58 357.45C707.6 359.103 707.31 360.727 706.71 362.32C706.611 362.584 706.567 362.866 706.58 363.15C706.673 364.783 706.383 366.49 705.71 368.27C705.598 368.56 705.55 368.874 705.57 369.19C705.657 370.45 705.39 371.77 704.77 373.15C704.645 373.42 704.577 373.717 704.57 374.02C704.543 375.707 704.443 376.703 704.27 377.01C703.43 378.53 703.75 379.49 703.42 380.82C702.553 384.333 701.523 388.48 700.33 393.26C700.245 393.602 700.08 393.92 699.85 394.19C699.83 394.21 699.793 394.24 699.74 394.28C699.665 394.334 699.606 394.409 699.571 394.495C699.536 394.582 699.525 394.677 699.54 394.77C699.753 395.917 699.503 397.013 698.79 398.06C698.597 398.342 698.519 398.689 698.57 399.03C698.677 399.823 698.467 400.497 697.94 401.05C697.802 401.194 697.696 401.367 697.631 401.557C697.565 401.747 697.541 401.949 697.56 402.15L697.6 402.57C697.613 402.735 697.596 402.898 697.55 403.05C695.59 409.123 694.297 412.97 693.67 414.59C693.63 414.683 693.593 414.973 693.56 415.46C693.54 415.84 693.32 416.107 692.9 416.26C692.754 416.311 692.632 416.415 692.559 416.55C692.487 416.686 692.469 416.843 692.51 416.99C692.783 417.983 692.577 418.717 691.89 419.19C691.773 419.268 691.681 419.378 691.625 419.505C691.568 419.633 691.549 419.773 691.57 419.91C691.697 420.723 691.443 421.47 690.81 422.15C690.713 422.256 690.642 422.384 690.602 422.522C690.563 422.661 690.555 422.807 690.58 422.95C690.7 423.603 690.447 424.06 689.82 424.32C689.687 424.373 689.58 424.477 689.522 424.609C689.464 424.742 689.46 424.893 689.51 425.03C689.83 425.903 689.62 426.583 688.88 427.07C688.753 427.155 688.654 427.276 688.597 427.417C688.54 427.558 688.527 427.713 688.56 427.86C688.713 428.54 688.5 428.997 687.92 429.23C687.792 429.281 687.687 429.376 687.623 429.499C687.559 429.622 687.54 429.764 687.57 429.9C687.75 430.7 687.507 431.43 686.84 432.09C686.725 432.202 686.639 432.34 686.589 432.493C686.538 432.646 686.525 432.809 686.55 432.97C686.65 433.543 686.44 433.933 685.92 434.14C685.777 434.196 685.659 434.303 685.589 434.441C685.519 434.579 685.502 434.739 685.54 434.89C685.7 435.543 685.533 435.963 685.04 436.15C684.918 436.197 684.812 436.279 684.734 436.385C684.656 436.491 684.609 436.618 684.6 436.75C684.513 438.103 683.88 439.65 682.7 441.39C682.631 441.491 682.584 441.606 682.564 441.729C682.543 441.851 682.549 441.978 682.58 442.1C682.707 442.573 682.477 442.903 681.89 443.09C681.815 443.114 681.746 443.154 681.688 443.206C681.629 443.258 681.582 443.322 681.549 443.394C681.516 443.465 681.498 443.542 681.497 443.621C681.495 443.699 681.51 443.777 681.54 443.85C681.8 444.45 681.57 444.883 680.85 445.15C680.719 445.2 680.612 445.298 680.552 445.425C680.493 445.552 680.485 445.697 680.53 445.83C680.757 446.477 680.52 446.923 679.82 447.17C679.757 447.191 679.699 447.226 679.65 447.272C679.601 447.317 679.562 447.373 679.536 447.435C679.509 447.497 679.496 447.565 679.497 447.633C679.497 447.701 679.512 447.768 679.54 447.83C679.8 448.437 679.567 448.88 678.84 449.16C678.776 449.184 678.717 449.221 678.668 449.268C678.618 449.315 678.578 449.372 678.55 449.435C678.522 449.498 678.507 449.567 678.505 449.636C678.504 449.706 678.515 449.775 678.54 449.84C678.8 450.507 678.547 450.943 677.78 451.15C677.717 451.167 677.659 451.198 677.609 451.24C677.56 451.282 677.52 451.335 677.493 451.394C677.467 451.453 677.453 451.518 677.454 451.583C677.455 451.648 677.471 451.712 677.5 451.77C677.82 452.41 677.613 452.857 676.88 453.11C676.744 453.158 676.632 453.256 676.567 453.385C676.501 453.513 676.488 453.662 676.53 453.8C676.73 454.433 676.523 454.857 675.91 455.07C675.78 455.114 675.672 455.205 675.607 455.326C675.542 455.447 675.525 455.587 675.56 455.72C675.593 455.847 675.5 456.137 675.28 456.59C674.953 457.277 674.67 457.817 674.43 458.21C673.47 459.777 672.807 460.97 672.44 461.79C672.399 461.881 672.338 461.962 672.26 462.028C672.183 462.094 672.09 462.142 671.99 462.17C671.577 462.283 671.44 462.537 671.58 462.93C671.641 463.097 671.647 463.279 671.597 463.449C671.546 463.618 671.442 463.766 671.3 463.87C671.28 463.883 671.227 463.917 671.14 463.97C670.947 464.095 670.79 464.268 670.683 464.473C670.577 464.678 670.524 464.908 670.53 465.14C670.537 465.487 670.34 465.81 669.94 466.11C669.699 466.292 669.518 466.547 669.42 466.84C669.033 468.02 668.5 468.823 667.82 469.25C667.723 469.309 667.65 469.4 667.612 469.509C667.573 469.618 667.573 469.738 667.61 469.85C667.763 470.31 667.537 470.73 666.93 471.11C666.724 471.238 666.574 471.438 666.51 471.67C666.17 472.81 665.643 473.65 664.93 474.19C664.831 474.267 664.752 474.366 664.7 474.479C664.648 474.593 664.624 474.716 664.63 474.84C664.657 475.54 664.123 476.267 663.03 477.02C662.899 477.109 662.792 477.23 662.721 477.374C662.649 477.517 662.614 477.678 662.62 477.84C662.64 478.413 662.13 479.15 661.09 480.05C660.961 480.161 660.856 480.297 660.782 480.45C660.708 480.603 660.666 480.77 660.66 480.94C660.633 481.533 660.057 482.287 658.93 483.2C658.841 483.274 658.774 483.369 658.733 483.476C658.693 483.583 658.681 483.698 658.7 483.81C658.767 484.197 658.637 484.527 658.31 484.8C657.323 485.647 656.753 486.43 656.6 487.15C656.522 487.519 656.321 487.851 656.03 488.09C654.82 489.07 654.33 490.33 653.46 491.5C650.4 495.607 647.593 499.287 645.04 502.54C625.847 527.02 603.873 548.127 579.12 565.86C569.54 572.72 558.59 579.567 546.27 586.4C546.063 586.513 545.82 586.59 545.54 586.63C545.293 586.663 545.11 586.83 544.99 587.13C544.917 587.308 544.783 587.455 544.611 587.545C544.439 587.635 544.241 587.661 544.05 587.62C544.003 587.607 543.963 587.6 543.93 587.6C543.728 587.564 543.52 587.601 543.344 587.704C543.168 587.807 543.036 587.968 542.97 588.16C542.823 588.587 542.55 588.73 542.15 588.59C541.977 588.527 541.789 588.522 541.612 588.576C541.435 588.63 541.28 588.741 541.17 588.89C541.157 588.91 541.13 588.96 541.09 589.04C541.001 589.246 540.841 589.413 540.639 589.511C540.437 589.608 540.206 589.629 539.99 589.57C539.49 589.43 539.173 589.66 539.04 590.26C539.023 590.334 538.989 590.403 538.943 590.463C538.896 590.522 538.836 590.571 538.769 590.605C538.701 590.64 538.627 590.659 538.551 590.661C538.475 590.664 538.4 590.65 538.33 590.62C537.63 590.333 537.177 590.563 536.97 591.31C536.95 591.381 536.914 591.447 536.865 591.503C536.817 591.559 536.757 591.604 536.689 591.635C536.622 591.665 536.548 591.681 536.474 591.68C536.4 591.679 536.327 591.662 536.26 591.63C535.647 591.337 535.213 591.557 534.96 592.29C534.937 592.358 534.9 592.421 534.851 592.474C534.803 592.527 534.744 592.57 534.678 592.599C534.612 592.628 534.541 592.643 534.469 592.643C534.397 592.643 534.326 592.629 534.26 592.6C533.727 592.373 533.323 592.517 533.05 593.03C532.959 593.202 532.823 593.346 532.655 593.446C532.488 593.547 532.296 593.6 532.1 593.6C532.08 593.6 532.037 593.6 531.97 593.6C531.715 593.594 531.465 593.663 531.25 593.8C529.603 594.873 528.107 595.487 526.76 595.64C526.63 595.655 526.508 595.71 526.412 595.799C526.317 595.887 526.253 596.003 526.23 596.13C526.13 596.617 525.843 596.757 525.37 596.55C525.248 596.497 525.117 596.47 524.984 596.469C524.852 596.469 524.72 596.496 524.599 596.548C524.477 596.601 524.367 596.678 524.276 596.774C524.185 596.871 524.115 596.985 524.07 597.11C523.91 597.583 523.603 597.75 523.15 597.61C523.033 597.575 522.911 597.565 522.79 597.581C522.67 597.596 522.554 597.637 522.45 597.7C520.63 598.853 519.013 599.5 517.6 599.64C517.466 599.655 517.34 599.709 517.237 599.794C517.134 599.88 517.058 599.993 517.02 600.12C516.88 600.587 516.557 600.747 516.05 600.6C515.67 600.493 515.327 600.59 515.02 600.89C514.487 601.43 513.88 601.657 513.2 601.57C512.985 601.54 512.767 601.569 512.57 601.654C512.372 601.739 512.203 601.876 512.08 602.05C512.067 602.07 512.053 602.097 512.04 602.13C511.97 602.257 511.867 602.363 511.742 602.437C511.618 602.511 511.475 602.55 511.33 602.55C510.59 602.557 510.03 602.733 509.65 603.08C508.66 603.98 507.86 603.21 506.83 604.12C506.11 604.75 505.59 604.6 504.69 604.58C504.503 604.573 504.273 604.763 504 605.15C503.667 605.61 503.143 605.737 502.43 605.53C502.01 605.417 501.74 605.427 501.62 605.56C501.433 605.753 501.313 605.903 501.26 606.01C501.22 606.101 501.158 606.182 501.08 606.248C501.003 606.314 500.91 606.362 500.81 606.39C497.557 607.31 495.633 607.947 495.04 608.3C494.327 608.72 493.723 608.8 493.23 608.54C493.083 608.463 492.912 608.445 492.751 608.489C492.589 608.534 492.45 608.638 492.36 608.78C491.953 609.42 491.347 609.687 490.54 609.58C489.04 609.37 488.82 610.77 486.99 610.6C486.641 610.568 486.293 610.664 486.01 610.87C484.51 611.95 483.22 611.1 482.11 611.97C481.08 612.78 480.8 612.48 479.77 612.59C479.401 612.636 479.046 612.766 478.73 612.97C477.93 613.49 477.117 613.693 476.29 613.58C475.92 613.528 475.541 613.599 475.21 613.78C473.42 614.74 472.5 614.28 471.08 614.84C470.287 615.147 469.58 615.367 468.96 615.5C460.287 617.293 453.86 618.507 449.68 619.14C432.84 621.693 416.27 623.017 399.97 623.11C392.197 623.157 384.23 622.827 376.07 622.12C367.383 621.373 359.453 620.48 352.28 619.44C351.287 619.3 350.503 619.077 349.93 618.77C349.623 618.607 349.279 618.537 348.94 618.57C347.253 618.73 345.577 618.46 343.91 617.76C343.62 617.641 343.307 617.583 342.99 617.59C341.523 617.637 340.12 617.353 338.78 616.74C338.498 616.609 338.188 616.554 337.88 616.58C336.533 616.687 335.213 616.41 333.92 615.75C333.633 615.606 333.31 615.547 332.99 615.58C331.943 615.693 330.93 615.43 329.95 614.79C329.801 614.689 329.632 614.618 329.454 614.582C329.275 614.546 329.091 614.545 328.91 614.58C327.957 614.753 326.963 614.503 325.93 613.83C325.613 613.623 325.235 613.531 324.86 613.57C323.82 613.683 322.85 613.437 321.95 612.83C321.715 612.674 321.437 612.59 321.15 612.59H319.91C319.589 612.59 319.274 612.5 319 612.33C318.2 611.85 317.217 611.57 316.05 611.49C315.643 611.463 315.28 611.297 314.96 610.99C314.848 610.885 314.714 610.809 314.57 610.77L307.06 608.62C306.954 608.594 306.843 608.584 306.73 608.59C305.963 608.637 305.387 608.457 305 608.05C304.01 606.99 302.68 608.25 301.82 606.97C301.74 606.85 301.632 606.752 301.507 606.684C301.381 606.616 301.241 606.58 301.1 606.58H299.93C299.762 606.58 299.597 606.542 299.446 606.467C299.295 606.393 299.163 606.284 299.06 606.15C298.76 605.75 298.427 605.567 298.06 605.6C297.593 605.64 297.223 605.59 296.95 605.45C296.31 605.13 293.367 604.08 288.12 602.3C287.985 602.255 287.871 602.166 287.8 602.05C287.567 601.643 287.157 601.49 286.57 601.59C286.17 601.657 285.803 601.55 285.47 601.27C284.32 600.29 283.59 600.98 282.68 599.94C282.433 599.667 282.003 599.52 281.39 599.5C281.139 599.493 280.894 599.435 280.67 599.33C280.397 599.203 278.337 598.293 274.49 596.6C236.783 579.98 203.593 556.72 174.92 526.82C149.333 500.133 128.63 470.023 112.81 436.49C112.49 435.817 112.347 435.32 112.38 435C112.393 434.838 112.351 434.679 112.26 434.55C111.26 433.03 110.623 431.447 110.35 429.8C110.322 429.639 110.261 429.484 110.172 429.345C110.083 429.206 109.966 429.085 109.83 428.99C109.823 428.99 109.777 428.967 109.69 428.92C109.595 428.87 109.517 428.793 109.466 428.698C109.414 428.604 109.391 428.497 109.4 428.39C109.51 426.95 108.28 426.38 108.42 425.06C108.473 424.573 108.277 424.18 107.83 423.88C107.7 423.791 107.594 423.671 107.521 423.532C107.448 423.393 107.41 423.237 107.41 423.08V421.91C107.41 421.769 107.37 421.632 107.296 421.515C107.221 421.398 107.115 421.306 106.99 421.25C106.55 421.05 106.357 420.69 106.41 420.17C106.55 418.82 105.06 418.6 105.42 416.98C105.459 416.809 105.44 416.629 105.366 416.47C105.292 416.31 105.166 416.18 105.01 416.1C104.303 415.733 104.12 415.11 104.46 414.23C104.523 414.06 104.519 413.872 104.451 413.703C104.383 413.535 104.254 413.399 104.09 413.32C103.557 413.06 103.33 412.67 103.41 412.15C103.477 411.683 103.33 411.26 102.97 410.88C102.577 410.48 102.393 409.887 102.42 409.1C102.433 408.73 102.328 408.365 102.12 408.06C101.84 407.647 101.697 407.433 101.69 407.42C101.49 407.18 101.403 406.893 101.43 406.56C101.49 405.76 101.353 405.223 101.02 404.95C100.507 404.53 100.31 404.02 100.43 403.42C100.71 402.03 99.26 401.46 99.43 400.15C99.4966 399.65 99.2066 398.89 98.56 397.87C98.462 397.72 98.4099 397.546 98.41 397.37V395.87C98.4098 395.706 98.376 395.544 98.3106 395.395C98.2452 395.245 98.1496 395.111 98.03 395C97.51 394.52 97.3133 393.893 97.44 393.12C97.5039 392.766 97.4289 392.398 97.23 392.09C96.5633 391.05 96.3033 390.02 96.45 389C96.472 388.846 96.4602 388.689 96.4154 388.538C96.3705 388.388 96.2936 388.249 96.19 388.13C95.5366 387.377 95.2933 386.393 95.46 385.18C95.4852 385.009 95.4761 384.836 95.4332 384.669C95.3902 384.502 95.3143 384.346 95.21 384.21C94.6833 383.49 94.4666 382.68 94.56 381.78C94.5642 381.741 94.5598 381.701 94.5472 381.664C94.5345 381.626 94.5138 381.592 94.4865 381.563C94.4591 381.533 94.4257 381.51 94.3884 381.494C94.3511 381.478 94.3107 381.47 94.27 381.47H11.16C10.4774 381.47 9.80671 381.298 9.20997 380.97C8.69663 380.69 8.38997 380.557 8.28997 380.57C7.39663 380.697 6.21663 380.357 4.74997 379.55C3.45663 378.843 2.63663 377.953 2.28997 376.88C2.26694 376.802 2.21977 376.732 2.15516 376.682C2.09055 376.632 2.01177 376.603 1.92997 376.6C1.39663 376.593 1.23663 376.177 1.44996 375.35C1.50371 375.153 1.48733 374.943 1.40358 374.755C1.31982 374.568 1.17378 374.414 0.989964 374.32C0.963298 374.307 0.9433 374.297 0.929967 374.29C0.75338 374.159 0.614322 373.983 0.526608 373.779C0.438895 373.576 0.405579 373.352 0.429967 373.13C0.609967 371.54 -0.250035 370.45 -0.0800353 368.9C0.0799646 367.407 0.296633 366.187 0.569966 365.24C1.10997 363.34 1.8633 361.94 2.82997 361.04C3.1033 360.78 3.87663 359.997 5.14997 358.69C5.27011 358.567 5.41831 358.474 5.58197 358.42C5.74563 358.366 5.9199 358.352 6.08996 358.38C6.09663 358.387 6.12663 358.397 6.17997 358.41C6.27325 358.437 6.37292 358.438 6.46814 358.411C6.56335 358.385 6.65046 358.333 6.71997 358.26C8.01997 356.86 9.10997 357.87 10.64 357.34C11.14 357.167 11.4266 357.077 11.5 357.07C12.4466 356.997 38.8333 356.977 90.66 357.01C90.7118 357.01 90.7578 356.996 90.79 356.97C90.9633 356.817 91.0733 356.653 91.12 356.48ZM148.12 444.46C148.167 444.593 148.27 444.807 148.43 445.1C171.197 486.673 202.02 520.567 240.9 546.78C290.053 579.927 344.183 596.157 403.29 595.47C425.497 595.21 446.533 592.673 466.4 587.86C513.75 576.37 559.15 552.17 594.86 517.52C600.867 511.693 605.61 506.887 609.09 503.1C643.083 466.207 665.68 423.14 676.88 373.9C691.89 307.9 683.11 238.8 651.93 178.83C611.31 100.72 534.53 46.0601 447.92 31.3001C383.7 20.3601 316.79 31.5901 259.73 63.2201C235.863 76.4467 213.813 93.3734 193.58 114C178.27 129.59 164.59 148.19 153.17 166.95C153.14 166.998 153.123 167.054 153.121 167.111C153.12 167.168 153.133 167.225 153.161 167.274C153.188 167.324 153.229 167.366 153.278 167.395C153.327 167.424 153.383 167.44 153.44 167.44C257.847 167.04 365.99 166.923 477.87 167.09C509.21 167.14 540.55 173.8 556.41 203.83C558.73 208.21 560.957 213.233 563.09 218.9C566.47 227.873 569.453 236.73 572.04 245.47C580.407 273.797 587.11 300.32 592.15 325.04C593.903 333.613 594.78 342.433 594.78 351.5C594.787 376.053 594.773 394.22 594.74 406C594.72 415.77 594.93 427.92 587.85 435.36C580.87 442.7 571.41 444.1 561.25 444.09C552.863 444.083 500.137 444.06 403.07 444.02C402.874 444.02 402.684 444.09 402.534 444.218C402.384 444.347 402.283 444.524 402.25 444.72C398.35 467.433 386.943 485.283 368.03 498.27C354.283 507.71 338.893 511.573 321.86 509.86C288.56 506.51 260.3 478.35 256.95 444.97C256.925 444.712 256.806 444.473 256.615 444.299C256.425 444.125 256.177 444.029 255.92 444.03H148.44C148.388 444.029 148.336 444.041 148.289 444.064C148.242 444.087 148.201 444.121 148.17 444.163C148.138 444.205 148.118 444.254 148.109 444.306C148.1 444.357 148.104 444.41 148.12 444.46ZM534.05 230.01V333.19C534.05 333.275 534.067 333.36 534.099 333.439C534.132 333.518 534.18 333.589 534.24 333.65C534.301 333.71 534.372 333.758 534.451 333.791C534.53 333.823 534.615 333.84 534.7 333.84H570.08C570.181 333.839 570.28 333.816 570.371 333.772C570.461 333.728 570.541 333.665 570.604 333.586C570.667 333.508 570.712 333.416 570.736 333.319C570.759 333.221 570.761 333.119 570.74 333.02C563.28 297.88 554.637 263.6 544.81 230.18C544.74 229.938 544.592 229.725 544.389 229.574C544.185 229.422 543.936 229.34 543.68 229.34H534.72C534.632 229.34 534.545 229.357 534.464 229.391C534.382 229.425 534.308 229.474 534.246 229.536C534.184 229.598 534.135 229.672 534.101 229.754C534.067 229.835 534.05 229.922 534.05 230.01ZM323.456 380.993C308.411 382.442 294.559 389.82 284.947 401.505C275.335 413.191 270.751 428.225 272.202 443.302C272.921 450.768 275.1 458.018 278.615 464.641C282.13 471.263 286.912 477.128 292.688 481.899C298.464 486.671 305.121 490.256 312.278 492.45C319.436 494.644 326.954 495.404 334.404 494.687C349.449 493.238 363.301 485.86 372.913 474.175C382.525 462.489 387.109 447.455 385.658 432.378C384.939 424.913 382.76 417.662 379.245 411.039C375.73 404.417 370.948 398.552 365.172 393.781C359.396 389.009 352.739 385.424 345.582 383.23C338.424 381.036 330.906 380.276 323.456 380.993Z" fill="#0A0E12"/>
<path d="M176.6 767.84C176.66 768.1 176.62 768.31 176.48 768.47C174.08 771.143 170.783 774.42 166.59 778.3C164.737 780.02 160.233 782.717 153.08 786.39C152.722 786.579 152.316 786.649 151.92 786.59C151.447 786.517 151.153 786.697 151.04 787.13C151.002 787.274 150.913 787.399 150.79 787.482C150.667 787.565 150.517 787.6 150.37 787.58C149.65 787.48 148.767 787.787 147.72 788.5C147.555 788.613 147.364 788.682 147.167 788.702C146.969 788.721 146.771 788.689 146.59 788.61C145.95 788.337 145.497 788.42 145.23 788.86C145.144 788.996 145.032 789.114 144.9 789.207C144.768 789.3 144.618 789.366 144.46 789.4C139.86 790.433 134.707 791.117 129 791.45C124.16 791.737 118.153 791.173 110.98 789.76C109.2 789.407 108.183 789.1 107.93 788.84C107.819 788.729 107.683 788.647 107.533 788.602C107.383 788.557 107.224 788.549 107.07 788.58C106.52 788.69 105.55 788.6 105.01 788.01C104.73 787.697 104.357 787.567 103.89 787.62C103.745 787.64 103.594 787.623 103.45 787.57C86.5033 780.897 74.85 769.293 68.49 752.76C68.37 752.44 68.3333 752.18 68.38 751.98C68.4132 751.836 68.4056 751.686 68.3578 751.547C68.3101 751.407 68.2243 751.283 68.11 751.19C67.5366 750.703 67.3 749.977 67.4 749.01C67.4384 748.675 67.3533 748.334 67.16 748.05C66.4666 747.043 66.23 746.107 66.45 745.24C66.4785 745.117 66.4817 744.989 66.4594 744.863C66.4371 744.738 66.3897 744.618 66.32 744.51C65.96 743.97 65.58 741.883 65.18 738.25C64.38 730.963 64.44 725.293 65.36 721.24C65.4197 720.968 65.4399 720.689 65.42 720.41C65.3266 719.197 65.5633 717.817 66.13 716.27C66.4433 715.423 66.55 714.723 66.45 714.17C66.3 713.4 67.04 712.38 67.3 711.43C68.04 708.697 68.7966 706.473 69.57 704.76C76.07 690.393 86.6166 680.117 101.21 673.93C102.23 673.503 102.83 673.31 103.01 673.35C103.156 673.383 103.308 673.376 103.452 673.331C103.596 673.285 103.726 673.202 103.83 673.09C104.33 672.537 105.057 672.31 106.01 672.41C106.154 672.426 106.3 672.409 106.439 672.36C106.577 672.312 106.704 672.233 106.81 672.13C107.33 671.617 108.057 671.38 108.99 671.42C109.337 671.433 109.682 671.35 109.99 671.18C111.15 670.553 112.393 670.3 113.72 670.42C114.087 670.453 114.459 670.391 114.8 670.24C116.34 669.547 118.463 669.283 121.17 669.45C121.614 669.477 122.059 669.44 122.49 669.34C124.483 668.9 126.903 668.813 129.75 669.08C132.81 669.367 135.047 669.613 136.46 669.82C149.787 671.767 161.103 677.103 170.41 685.83C175.25 690.37 179.217 695.633 182.31 701.62C185.263 707.333 187.22 713.633 188.18 720.52C188.613 723.627 188.73 725.703 188.53 726.75C188.472 727.042 188.507 727.343 188.63 727.61C189.17 728.81 189.197 730.053 188.71 731.34C188.631 731.558 188.59 731.789 188.59 732.02C188.603 735.067 188.577 736.81 188.51 737.25C188.21 739.237 187.503 742.987 186.39 748.5C186.361 748.654 186.3 748.801 186.211 748.93C186.121 749.059 186.005 749.168 185.87 749.25C185.77 749.31 185.713 749.343 185.7 749.35C185.595 749.433 185.518 749.546 185.48 749.673C185.443 749.801 185.446 749.936 185.49 750.06C185.837 751.1 185.623 751.827 184.85 752.24C184.723 752.306 184.621 752.413 184.56 752.545C184.498 752.676 184.481 752.826 184.51 752.97C184.737 753.977 184.503 754.7 183.81 755.14C183.69 755.218 183.598 755.333 183.551 755.467C183.504 755.601 183.504 755.747 183.55 755.88C183.757 756.48 183.553 756.893 182.94 757.12C182.792 757.174 182.671 757.284 182.602 757.426C182.533 757.567 182.522 757.73 182.57 757.88C182.763 758.487 182.537 758.92 181.89 759.18C181.763 759.233 181.661 759.332 181.602 759.457C181.543 759.582 181.531 759.726 181.57 759.86C181.743 760.44 181.54 760.847 180.96 761.08C180.822 761.136 180.708 761.24 180.64 761.374C180.572 761.508 180.554 761.663 180.59 761.81C180.723 762.303 180.473 762.77 179.84 763.21C179.652 763.34 179.508 763.525 179.43 763.74C178.957 765.033 178.053 766.27 176.72 767.45C176.668 767.496 176.63 767.557 176.609 767.625C176.588 767.694 176.585 767.768 176.6 767.84ZM91.7 731.17C91.75 733.88 92.44 736.24 92.62 737.98C92.7733 739.527 93.2033 741.25 93.91 743.15C98.15 754.57 105.86 761.973 117.04 765.36C119.4 766.073 122.08 766.483 125.08 766.59C128.76 766.717 131.487 766.57 133.26 766.15C145.84 763.163 154.407 755.697 158.96 743.75C160.673 739.263 161.487 734.643 161.4 729.89C161.307 725.137 160.327 720.553 158.46 716.14C153.467 704.367 144.63 697.217 131.95 694.69C130.163 694.337 127.433 694.29 123.76 694.55C120.767 694.77 118.103 695.28 115.77 696.08C104.723 699.873 97.29 707.553 93.47 719.12C92.8366 721.04 92.47 722.777 92.37 724.33C92.25 726.08 91.65 728.46 91.7 731.17Z" fill="#0A0E12"/>
<path d="M717.38 698.84C717.327 699.12 717.243 699.323 717.13 699.45C716.957 699.643 716.747 699.707 716.5 699.64C715.913 699.48 715.457 699.597 715.13 699.99C714.994 700.158 714.826 700.297 714.635 700.398C714.444 700.499 714.235 700.561 714.02 700.58C709.72 700.96 705.923 699.73 702.63 696.89C702.483 696.765 702.31 696.675 702.125 696.627C701.94 696.578 701.747 696.573 701.56 696.61C701.187 696.683 700.953 696.543 700.86 696.19C700.804 695.987 700.677 695.811 700.501 695.694C700.324 695.576 700.111 695.525 699.9 695.55C699.853 695.557 699.79 695.567 699.71 695.58C699.524 695.605 699.334 695.592 699.154 695.54C698.973 695.488 698.805 695.4 698.66 695.28C698.133 694.84 697.553 694.603 696.92 694.57C696.714 694.561 696.513 694.506 696.332 694.409C696.15 694.312 695.992 694.176 695.87 694.01C695.87 694.003 695.84 693.957 695.78 693.87C695.708 693.756 695.604 693.664 695.48 693.606C695.356 693.548 695.218 693.525 695.08 693.54C694.027 693.673 692.733 693.45 691.2 692.87C691.041 692.81 690.876 692.77 690.71 692.75C685.943 692.117 681.627 692.697 677.76 694.49C677.502 694.609 677.265 694.775 677.06 694.98L673.66 698.38C673.588 698.452 673.539 698.543 673.518 698.642C673.497 698.742 673.504 698.845 673.54 698.94C673.727 699.413 673.557 699.783 673.03 700.05C672.882 700.128 672.758 700.245 672.671 700.388C672.585 700.531 672.54 700.694 672.54 700.86V706.17C672.54 706.374 672.584 706.576 672.67 706.76C673.477 708.507 674.073 709.587 674.46 710C675.807 711.413 677.99 712.817 681.01 714.21C683.17 715.203 687.753 716.777 694.76 718.93C703.14 721.503 710.39 725.013 716.51 729.46C719.27 731.473 721.797 734.35 724.09 738.09C726.043 741.27 727.287 744.867 727.82 748.88C728.44 753.62 728.407 758.277 727.72 762.85C727.687 763.083 727.65 763.327 727.61 763.58C727.51 764.24 727.253 764.757 726.84 765.13C726.712 765.249 726.618 765.399 726.567 765.566C726.516 765.733 726.51 765.91 726.55 766.08C726.75 766.913 726.53 767.59 725.89 768.11C725.78 768.199 725.694 768.316 725.639 768.449C725.585 768.581 725.565 768.726 725.58 768.87C725.587 768.923 725.597 768.993 725.61 769.08C725.623 769.185 725.606 769.289 725.56 769.38C724.487 771.347 723.94 772.353 723.92 772.4C723.68 773.007 723.067 773.93 722.08 775.17C718.387 779.85 713.87 783.413 708.53 785.86C708.273 785.979 708 786.18 707.73 786.45C707.55 786.623 707.297 786.673 706.97 786.6C706.697 786.54 706.45 786.603 706.23 786.79C706.057 786.95 705.88 787.127 705.7 787.32C705.587 787.445 705.444 787.538 705.285 787.59C705.125 787.643 704.955 787.653 704.79 787.62C703.943 787.447 703.373 787.567 703.08 787.98C702.667 788.553 702.19 788.757 701.65 788.59C700.977 788.383 700.423 788.523 699.99 789.01C699.543 789.503 699.027 789.687 698.44 789.56C697.74 789.42 696 790.18 694.83 790.4C684.65 792.32 674.597 791.67 664.67 788.45C660.877 787.217 657.493 785.87 654.52 784.41C647.33 780.88 639.47 775.23 643.34 766.13C645.71 760.54 650 756.61 656.51 757.46C656.937 757.52 658.223 757.93 660.37 758.69C661.403 759.057 662.587 759.7 663.92 760.62C666.353 762.293 669.453 763.903 673.22 765.45C675.173 766.257 676.617 766.623 677.55 766.55C677.91 766.517 678.777 766.757 680.15 767.27C680.414 767.376 680.696 767.43 680.98 767.43H690.18C690.468 767.43 690.754 767.354 691.01 767.21C691.91 766.71 692.823 766.44 693.75 766.4C693.975 766.394 694.202 766.346 694.42 766.26C700.313 763.84 702.587 759.333 701.24 752.74C701.18 752.429 701.065 752.128 700.9 751.85C699.32 749.217 696.95 747.167 693.79 745.7C689.803 743.84 685.487 742.33 680.84 741.17C680.62 741.117 679.387 740.683 677.14 739.87C675.56 739.303 674.33 738.873 673.45 738.58C668.39 736.88 663.5 734.673 658.78 731.96C653.56 728.953 649.773 724.943 647.42 719.93C646.753 718.517 646.107 716.683 645.48 714.43C644.38 710.463 644.083 706.247 644.59 701.78C646.23 687.47 655 677.28 668.84 672.32C675.047 670.1 680.81 669.12 686.13 669.38C686.321 669.393 686.516 669.362 686.7 669.29C687.833 668.857 689.01 668.847 690.23 669.26C690.342 669.3 690.464 669.32 690.59 669.32C695.257 669.36 700.74 670.37 707.04 672.35C708.18 672.703 709.567 673.25 711.2 673.99C715.533 675.957 718.79 678.293 720.97 681C721.97 682.247 722.523 683.3 722.63 684.16C722.648 684.286 722.703 684.404 722.789 684.497C722.875 684.59 722.987 684.654 723.11 684.68C723.217 684.707 723.327 684.767 723.44 684.86C723.465 684.879 723.487 684.902 723.502 684.928C723.518 684.954 723.527 684.982 723.53 685.01C724.057 688.337 724.143 690.113 723.79 690.34C723.664 690.419 723.569 690.54 723.52 690.681C723.471 690.823 723.471 690.977 723.52 691.12C723.78 691.887 723.657 692.463 723.15 692.85C722.973 692.989 722.826 693.163 722.717 693.361C722.609 693.558 722.542 693.776 722.52 694C722.513 694.053 722.51 694.09 722.51 694.11C722.485 694.414 722.353 694.697 722.14 694.91L718.8 698.28C718.631 698.449 718.414 698.561 718.18 698.6C718 698.633 717.887 698.637 717.84 698.61C717.795 698.587 717.746 698.576 717.696 698.575C717.646 698.575 717.597 698.587 717.552 698.609C717.507 698.632 717.468 698.664 717.439 698.704C717.409 698.744 717.389 698.791 717.38 698.84ZM675.07 695.84L674.86 696.05C674.805 696.106 674.765 696.174 674.744 696.249C674.723 696.325 674.721 696.404 674.739 696.48C674.757 696.556 674.794 696.626 674.847 696.684C674.899 696.742 674.966 696.785 675.04 696.81C675.68 697.03 676.033 696.877 676.1 696.35C676.115 696.225 676.091 696.098 676.031 695.988C675.971 695.877 675.878 695.788 675.765 695.732C675.652 695.676 675.525 695.656 675.4 695.676C675.276 695.695 675.16 695.753 675.07 695.84Z" fill="#0A0E12"/>
<path d="M227.42 786.08L227.89 785.95C227.914 785.943 227.94 785.945 227.963 785.955C227.986 785.965 228.004 785.983 228.016 786.005C228.028 786.027 228.032 786.053 228.027 786.077C228.022 786.102 228.009 786.124 227.99 786.14L226.49 787.65C226.446 787.69 226.39 787.712 226.332 787.712C226.275 787.712 226.22 787.69 226.18 787.65L225.79 787.26C225.782 787.25 225.771 787.241 225.759 787.235C225.747 787.23 225.733 787.227 225.72 787.227C225.707 787.227 225.693 787.23 225.681 787.235C225.669 787.241 225.658 787.25 225.65 787.26C225.543 787.38 225.45 787.553 225.37 787.78C225.324 787.916 225.245 788.039 225.141 788.138C225.036 788.237 224.909 788.31 224.77 788.35C220.137 789.77 216.077 790.06 212.59 789.22C210.53 788.727 209.457 788.493 209.37 788.52C209.312 788.538 209.251 788.542 209.191 788.534C209.132 788.525 209.074 788.504 209.023 788.471C208.972 788.437 208.928 788.393 208.895 788.341C208.861 788.29 208.839 788.231 208.83 788.17C208.743 787.55 208.407 787.34 207.82 787.54C207.712 787.576 207.596 787.582 207.485 787.555C207.374 787.529 207.272 787.471 207.19 787.39L204.62 784.83C204.51 784.72 204.43 784.583 204.388 784.433C204.346 784.282 204.343 784.123 204.38 783.97C204.65 782.8 203.97 781.47 203.97 780C203.917 746.887 203.92 713.737 203.98 680.55C203.987 678.777 204.89 676.677 206.69 674.25C206.9 673.968 207.175 673.744 207.49 673.6C210.65 672.147 212.66 671.437 213.52 671.47C215.153 671.53 216.477 671.4 217.49 671.08C217.853 670.968 218.237 670.927 218.62 670.96C222.927 671.307 226.37 671.927 228.95 672.82C233.26 674.32 236.66 679.62 239.26 683.48C254.573 706.18 268.377 726.893 280.67 745.62C280.781 745.791 280.944 745.922 281.135 745.993C281.326 746.063 281.535 746.07 281.731 746.011C281.926 745.952 282.097 745.832 282.218 745.667C282.338 745.503 282.402 745.304 282.4 745.1V679.29C282.4 679.084 282.427 678.876 282.48 678.67L283.51 674.57C283.556 674.393 283.646 674.235 283.77 674.11L285.33 672.55C285.423 672.457 285.541 672.393 285.668 672.364C285.796 672.336 285.928 672.345 286.05 672.39C286.417 672.523 286.697 672.42 286.89 672.08C286.925 672.023 286.971 671.973 287.026 671.934C287.081 671.894 287.143 671.866 287.21 671.85C292.377 670.763 297.367 670.763 302.18 671.85C303.927 672.243 305.357 673.043 306.47 674.25C306.683 674.483 306.733 674.78 306.62 675.14C306.582 675.269 306.584 675.406 306.627 675.533C306.67 675.66 306.752 675.771 306.86 675.85C307.567 676.383 307.783 677.337 307.51 678.71C307.445 679.034 307.491 679.368 307.64 679.66L307.82 680C307.952 680.263 308.02 680.554 308.02 680.85C308.06 724.957 308.06 757.5 308.02 778.48C308.02 780.4 307.573 782.427 306.68 784.56C306.54 784.893 305.387 785.9 303.22 787.58C302.713 787.973 302.203 788.217 301.69 788.31C299.443 788.737 298.173 788.987 297.88 789.06C296.753 789.353 295.46 789.523 294 789.57C290.893 789.677 287.867 789.24 284.92 788.26C284.913 788.26 284.437 788.003 283.49 787.49C280.937 786.117 278.697 784.193 276.77 781.72C273.91 778.04 271.123 774.167 268.41 770.1C254.323 748.993 243.23 732.333 235.13 720.12C234.697 719.473 234.457 719.083 234.41 718.95C234.217 718.41 233.99 718.033 233.73 717.82C232.69 716.967 232.26 716.283 232.44 715.77C232.458 715.72 232.465 715.666 232.461 715.612C232.456 715.559 232.44 715.507 232.413 715.46C232.387 715.414 232.35 715.373 232.307 715.342C232.263 715.311 232.213 715.29 232.16 715.28C231.4 715.12 231.2 714.61 231.56 713.75C231.588 713.681 231.599 713.607 231.591 713.533C231.583 713.46 231.557 713.389 231.516 713.328C231.474 713.266 231.418 713.216 231.353 713.182C231.287 713.147 231.214 713.129 231.14 713.13H229.66C229.533 713.13 229.411 713.182 229.321 713.274C229.231 713.365 229.18 713.49 229.18 713.62V782.05C229.18 782.409 229.08 782.76 228.89 783.06C228.53 783.627 228.427 784.12 228.58 784.54C228.618 784.645 228.63 784.757 228.614 784.867C228.598 784.978 228.555 785.082 228.489 785.171C228.422 785.261 228.334 785.332 228.233 785.379C228.132 785.426 228.021 785.447 227.91 785.44C227.577 785.42 227.347 785.46 227.22 785.56C227.17 785.598 227.134 785.651 227.116 785.712C227.099 785.772 227.102 785.837 227.125 785.895C227.147 785.954 227.188 786.004 227.241 786.037C227.295 786.07 227.357 786.085 227.42 786.08Z" fill="#0A0E12"/>
<path d="M398.72 720.34C399.847 722.013 400.487 724.263 400.64 727.09C400.647 727.263 400.67 727.437 400.71 727.61C401.183 729.803 401.177 731.743 400.69 733.43C400.624 733.655 400.6 733.892 400.62 734.13C400.773 736.07 400.19 738.08 398.87 740.16C398.766 740.32 398.617 740.445 398.442 740.52C398.268 740.595 398.076 740.616 397.89 740.58C397.51 740.513 397.22 740.723 397.02 741.21C396.955 741.367 396.838 741.497 396.69 741.576C396.541 741.654 396.371 741.677 396.21 741.64C395.59 741.507 394.763 741.587 393.73 741.88C393.286 742.006 392.824 742.07 392.36 742.07H355.64C355.476 742.07 355.318 742.136 355.202 742.255C355.085 742.373 355.02 742.533 355.02 742.7V764.12C355.02 764.21 355.056 764.297 355.12 764.36C355.183 764.424 355.27 764.46 355.36 764.46C368.913 764.4 383.36 764.387 398.7 764.42C403.98 764.427 406.883 766.94 407.41 771.96C407.92 776.72 408.26 783.22 405 787.24C404.707 787.6 404.32 787.733 403.84 787.64C403.704 787.613 403.563 787.627 403.434 787.68C403.306 787.734 403.197 787.824 403.12 787.94C403.093 787.987 403.057 788.067 403.01 788.18C402.985 788.25 402.943 788.313 402.887 788.362C402.831 788.411 402.763 788.445 402.69 788.46L397.95 789.47C397.684 789.53 397.416 789.56 397.15 789.56C382.97 789.547 363.09 789.55 337.51 789.57C337.263 789.57 336.33 789.28 334.71 788.7C334.39 788.583 334.047 788.558 333.72 788.63C332.96 788.797 332.443 788.65 332.17 788.19C331.937 787.81 331.423 787.533 330.63 787.36C330.023 787.233 329.543 786.867 329.19 786.26C328.243 784.64 327.637 783.013 327.37 781.38C327.097 779.747 326.96 777.993 326.96 776.12C326.96 747.307 326.963 715.737 326.97 681.41C326.97 681.131 327.007 680.856 327.08 680.59C327.5 679.15 327.19 677.77 327.68 676.57C328.807 673.803 330.44 672.2 332.58 671.76C335.073 671.247 337.153 670.99 338.82 670.99C357.04 670.983 376.617 670.987 397.55 671C398.034 671 398.516 671.067 398.98 671.2C399.813 671.44 400.703 671.52 401.65 671.44C401.893 671.421 402.139 671.452 402.371 671.531C402.603 671.61 402.817 671.736 403 671.9C404.04 672.827 404.58 673.32 404.62 673.38C405.693 674.913 406.34 676.29 406.56 677.51C407.133 680.663 407.217 684.19 406.81 688.09C406.597 690.143 406.227 691.603 405.7 692.47C405.527 692.762 405.319 693.031 405.08 693.27C402.927 695.443 400.147 696.537 396.74 696.55C380.593 696.623 366.9 696.623 355.66 696.55C355.576 696.549 355.493 696.564 355.416 696.595C355.338 696.626 355.268 696.672 355.208 696.731C355.148 696.79 355.101 696.86 355.069 696.937C355.037 697.014 355.02 697.096 355.02 697.18V717.57C355.02 717.679 355.063 717.783 355.14 717.86C355.217 717.937 355.321 717.98 355.43 717.98H393.28C393.365 717.98 393.448 718.001 393.52 718.04C393.847 718.22 394.38 718.343 395.12 718.41C395.884 718.482 396.605 718.692 397.228 719.026C397.851 719.36 398.361 719.809 398.72 720.34ZM405.54 785.27C405.498 785.279 405.46 785.301 405.432 785.334C405.405 785.367 405.389 785.408 405.388 785.451C405.387 785.494 405.4 785.536 405.426 785.57C405.452 785.605 405.488 785.629 405.53 785.64C405.67 785.687 405.783 785.67 405.87 785.59C405.901 785.564 405.922 785.529 405.929 785.49C405.936 785.452 405.93 785.413 405.91 785.38C405.843 785.26 405.72 785.223 405.54 785.27Z" fill="#0A0E12"/>
<path d="M501.01 781.64C500.99 781.627 500.89 781.593 500.71 781.54C500.674 781.531 500.635 781.53 500.599 781.539C500.562 781.548 500.528 781.565 500.5 781.59L498.67 783.42C498.585 783.506 498.479 783.567 498.363 783.599C498.247 783.63 498.125 783.631 498.01 783.6C497.49 783.447 497.14 783.653 496.96 784.22C496.934 784.299 496.891 784.372 496.835 784.434C496.779 784.495 496.71 784.544 496.634 784.577C496.557 784.61 496.474 784.627 496.391 784.625C496.308 784.624 496.226 784.605 496.15 784.57C495.703 784.363 495.347 784.513 495.08 785.02C495.022 785.123 494.93 785.201 494.82 785.24L488.43 787.57C488.279 787.623 488.114 787.64 487.95 787.62C486.14 787.33 485.02 788.57 483.5 788.55C483.233 788.543 481.343 788.747 477.83 789.16C475.497 789.433 473.607 789.573 472.16 789.58C464.487 789.607 452.337 789.603 435.71 789.57C434.94 789.57 434.178 789.399 433.48 789.07C432.42 788.563 431.713 788.383 431.36 788.53C431.295 788.556 431.226 788.566 431.156 788.559C431.087 788.552 431.021 788.528 430.963 788.49C430.905 788.451 430.857 788.4 430.823 788.339C430.79 788.278 430.771 788.21 430.77 788.14C430.757 787.62 430.51 787.453 430.03 787.64C429.914 787.682 429.789 787.69 429.668 787.664C429.548 787.637 429.437 787.577 429.35 787.49L425.89 784.03C425.739 783.88 425.632 783.697 425.58 783.5L424.54 779.61C424.46 779.325 424.42 779.029 424.42 778.73C424.38 757.95 424.377 725.877 424.41 682.51C424.41 680.18 424.97 678.57 425.47 676.63C425.554 676.299 425.744 676.004 426.01 675.79C426.023 675.783 426.053 675.767 426.1 675.74C426.178 675.707 426.246 675.654 426.295 675.587C426.345 675.52 426.374 675.442 426.38 675.36C426.53 673.17 429.12 672.44 431.12 671.71C432.31 671.27 433.75 671.68 434.94 671.23C435.323 671.078 435.734 671 436.15 671C451.217 670.947 463.83 670.963 473.99 671.05C476.943 671.077 480.88 671.727 485.8 673C495.653 675.547 502.58 681.513 506.58 690.9C508.62 695.693 509.427 700.74 509 706.04C508.987 706.233 508.953 706.424 508.9 706.61C508.647 707.523 508.537 708.29 508.57 708.91C508.66 710.57 507.33 712.41 507.53 713.45C507.552 713.564 507.529 713.682 507.468 713.779C507.406 713.876 507.31 713.944 507.2 713.97C506.707 714.103 506.507 714.457 506.6 715.03C506.673 715.543 506.457 715.927 505.95 716.18C505.577 716.367 505.42 716.687 505.48 717.14C505.499 717.264 505.488 717.392 505.448 717.511C505.408 717.631 505.34 717.741 505.25 717.83L498.76 724.32C498.681 724.398 498.583 724.453 498.476 724.48C498.368 724.506 498.256 724.503 498.15 724.47C497.65 724.303 497.287 724.513 497.06 725.1C496.997 725.267 496.881 725.408 496.731 725.502C496.581 725.596 496.405 725.637 496.23 725.62L496 725.6C495.787 725.578 495.573 725.62 495.385 725.721C495.197 725.822 495.043 725.976 494.942 726.166C494.841 726.355 494.799 726.571 494.82 726.785C494.841 726.999 494.924 727.203 495.06 727.37C495.66 728.11 496.313 728.47 497.02 728.45C497.146 728.447 497.272 728.469 497.389 728.515C497.505 728.562 497.611 728.631 497.7 728.72C497.927 728.96 498.67 729.4 499.93 730.04C503.95 732.08 507.04 735.063 509.2 738.99C513.567 746.917 514.713 755.343 512.64 764.27C512.207 766.143 511.92 767.133 511.78 767.24C511.688 767.308 511.618 767.402 511.578 767.508C511.539 767.615 511.533 767.731 511.56 767.84C511.727 768.527 511.523 768.963 510.95 769.15C510.811 769.196 510.694 769.292 510.622 769.42C510.55 769.547 510.528 769.697 510.56 769.84C510.72 770.6 510.507 771.09 509.92 771.31C509.796 771.357 509.695 771.45 509.636 771.568C509.576 771.686 509.564 771.823 509.6 771.95C509.733 772.43 509.563 772.813 509.09 773.1C508.927 773.2 508.795 773.341 508.707 773.508C508.619 773.676 508.578 773.863 508.59 774.05C508.59 774.117 508.597 774.213 508.61 774.34C508.613 774.384 508.607 774.429 508.592 774.472C508.576 774.515 508.552 774.555 508.52 774.59L501.47 781.6C501.408 781.659 501.329 781.695 501.245 781.702C501.161 781.709 501.078 781.688 501.01 781.64ZM428.34 673.24C428.3 673.253 428.193 673.337 428.02 673.49C427.979 673.527 427.951 673.577 427.94 673.631C427.929 673.686 427.936 673.742 427.959 673.792C427.983 673.843 428.022 673.884 428.07 673.911C428.119 673.937 428.175 673.948 428.23 673.94C428.257 673.933 428.367 673.807 428.56 673.56C428.587 673.527 428.602 673.487 428.604 673.445C428.605 673.404 428.593 673.362 428.569 673.327C428.545 673.291 428.509 673.264 428.468 673.248C428.427 673.233 428.382 673.23 428.34 673.24ZM473.6 716.93C473.753 716.45 474.273 716.197 475.16 716.17C475.423 716.163 475.674 716.056 475.86 715.87L480.04 711.69C480.16 711.57 480.25 711.422 480.3 711.26C480.351 711.098 480.361 710.926 480.33 710.76C480.223 710.127 480.4 709.77 480.86 709.69C480.977 709.671 481.083 709.612 481.16 709.522C481.237 709.432 481.279 709.318 481.28 709.2V701.82C481.28 701.711 481.248 701.604 481.188 701.513C481.127 701.423 481.041 701.352 480.94 701.31C480.507 701.13 480.31 700.74 480.35 700.14C480.362 699.974 480.34 699.808 480.283 699.652C480.226 699.497 480.136 699.356 480.02 699.24L476.89 696.11C476.683 695.903 476.411 695.772 476.12 695.74C475.447 695.673 474.913 695.34 474.52 694.74C474.213 694.273 473.3 693.983 471.78 693.87C469.4 693.7 467.01 693.06 464.78 693.07C460.053 693.077 456.107 693.07 452.94 693.05C452.847 693.05 452.754 693.068 452.668 693.104C452.582 693.14 452.504 693.192 452.438 693.258C452.372 693.324 452.32 693.402 452.284 693.488C452.248 693.575 452.23 693.667 452.23 693.76V717.91C452.23 718.027 452.276 718.139 452.359 718.221C452.441 718.304 452.553 718.35 452.67 718.35H469.02C469.293 718.35 469.555 718.266 469.77 718.11C470.943 717.297 472.007 717.023 472.96 717.29C473.092 717.324 473.233 717.306 473.352 717.239C473.472 717.172 473.56 717.061 473.6 716.93ZM498.5 723.85C498.607 723.81 498.653 723.693 498.64 723.5C498.637 723.475 498.627 723.451 498.611 723.432C498.595 723.412 498.574 723.398 498.55 723.392C498.527 723.385 498.503 723.386 498.481 723.395C498.459 723.403 498.442 723.419 498.43 723.44C498.37 723.54 498.333 723.627 498.32 723.7C498.314 723.724 498.315 723.749 498.322 723.772C498.33 723.795 498.344 723.816 498.363 723.832C498.382 723.847 498.404 723.857 498.429 723.861C498.453 723.864 498.478 723.86 498.5 723.85ZM452.46 753.59C452.48 757.723 452.507 762.067 452.54 766.62C452.54 766.696 452.555 766.771 452.584 766.841C452.614 766.91 452.656 766.974 452.71 767.027C452.764 767.08 452.828 767.122 452.899 767.15C452.969 767.178 453.044 767.191 453.12 767.19C460.29 767.12 467.15 767.66 473.47 766.39C475.537 765.97 477.353 765.39 478.92 764.65C483.54 762.45 485.86 758.64 485.84 753.46C485.82 748.28 483.47 744.48 478.83 742.32C477.257 741.593 475.437 741.027 473.37 740.62C467.04 739.4 460.18 740 453.01 739.98C452.934 739.98 452.859 739.995 452.79 740.024C452.72 740.054 452.656 740.097 452.603 740.151C452.55 740.205 452.508 740.269 452.48 740.339C452.452 740.409 452.439 740.484 452.44 740.56C452.44 745.113 452.447 749.457 452.46 753.59Z" fill="#0A0E12"/>
<path d="M603.5 672.39C605.21 670.9 606.96 671.57 608.93 671.24C611.583 670.8 614.163 670.833 616.67 671.34C617.068 671.42 617.472 671.447 617.87 671.42C620.397 671.26 622.37 671.58 623.79 672.38C625.217 673.193 626.097 674.437 626.43 676.11C626.883 678.417 627.11 681.13 627.11 684.25C627.063 721.103 627.05 743.003 627.07 749.95C627.07 750.148 627.029 750.345 626.95 750.53C626.3 752.1 626.73 753.56 626.31 755.4C625.65 758.233 625.17 760.127 624.87 761.08C624.21 763.18 623.56 764.9 622.92 766.24C618.993 774.467 612.797 780.857 604.33 785.41C604.057 785.557 603.813 785.64 603.6 785.66C603.307 785.687 603.097 785.857 602.97 786.17C602.823 786.503 602.597 786.64 602.29 786.58C601.77 786.48 601.247 786.67 600.72 787.15C600.207 787.603 599.707 787.757 599.22 787.61C598.66 787.443 598.277 787.587 598.07 788.04C598.023 788.14 597.955 788.23 597.871 788.302C597.786 788.375 597.687 788.428 597.58 788.46C595.393 789.047 592.857 789.707 589.97 790.44C588.94 790.7 587.64 790.59 586.06 790.79C579.36 791.65 574.813 791.84 572.42 791.36C570.86 791.047 569.643 790.857 568.77 790.79C566.623 790.63 564.017 790.117 560.95 789.25C556.697 788.05 552.413 786.173 548.1 783.62C538.833 778.127 532.633 769.813 529.5 758.68C529.44 758.468 529.413 758.249 529.42 758.03C529.447 757.123 529.32 756.11 529.04 754.99C528.62 753.303 528.407 751.307 528.4 749C528.347 716.847 528.367 693.603 528.46 679.27C528.473 677.21 529.263 675.063 530.83 672.83C530.935 672.677 531.08 672.557 531.247 672.483C531.415 672.408 531.6 672.383 531.78 672.41C532.24 672.483 532.677 672.3 533.09 671.86C534.02 670.89 542.83 671.64 548.69 671.42C550.777 671.34 552.407 671.943 553.58 673.23C554.907 674.697 555.57 676.323 555.57 678.11C555.597 701.443 555.597 724.163 555.57 746.27C555.57 746.596 555.6 746.921 555.66 747.24C556.087 749.613 556.5 751.493 556.9 752.88C558.413 758.16 561.587 762.143 566.42 764.83C570.333 767.01 574.957 767.853 580.29 767.36C580.562 767.334 580.831 767.276 581.09 767.19C583.07 766.51 584.4 766.273 585.08 766.48C585.223 766.522 585.377 766.509 585.511 766.442C585.644 766.375 585.748 766.26 585.8 766.12C586 765.573 586.417 765.323 587.05 765.37C587.188 765.383 587.326 765.359 587.45 765.3C592.783 762.727 596.423 758.83 598.37 753.61C599.503 750.57 600.053 746.357 600.02 740.97C600.013 739.917 599.997 720.847 599.97 683.76C599.97 683.388 600.01 683.016 600.09 682.65C600.41 681.077 600.513 679.483 600.4 677.87C600.387 677.712 600.407 677.548 600.46 677.39L602.05 672.77C602.07 672.724 602.097 672.683 602.13 672.65C602.41 672.39 602.67 672.323 602.91 672.45C603.004 672.501 603.111 672.522 603.216 672.511C603.321 672.5 603.42 672.458 603.5 672.39Z" fill="#0A0E12"/>
</g>
<defs>
<clipPath id="clip0_1_69">
<rect width="728" height="792" fill="white"/>
</clipPath>
</defs>
</svg>
